<svg width="379" height="200" viewBox="0 0 379 200" fill="none" xmlns="http://www.w3.org/2000/svg">
<path d="M200 100C200 117.656 195.326 134.997 186.452 150.26C177.578 165.524 164.821 178.166 149.478 186.902C134.135 195.638 116.752 200.155 99.0974 199.996C81.4425 199.837 64.1444 195.006 48.9614 185.995C33.7785 176.983 21.252 164.113 12.6551 148.692C4.0583 133.27 -0.3024 115.848 0.0162921 98.195C0.334984 80.5421 5.3217 63.2884 14.4696 48.1874C23.6175 33.0864 36.6004 20.6765 52.0987 12.2192L68.9706 43.1375C58.9311 48.616 50.5211 56.6548 44.5953 66.4369C38.6695 76.219 35.4392 87.3956 35.2327 98.8307C35.0263 110.266 37.8511 121.552 43.4199 131.541C48.9888 141.531 57.1032 149.868 66.9383 155.705C76.7735 161.543 87.9788 164.672 99.4153 164.775C110.852 164.878 122.112 161.952 132.051 156.293C141.99 150.634 150.253 142.445 156.002 132.558C161.75 122.67 164.778 111.437 164.778 100H200Z" fill="#24AEAE" fill-opacity="0.89"/>
<path d="M51.4818 12.5587C73.16 0.530188 98.5335 -3.01688 122.679 2.60567C146.825 8.22823 168.021 22.6195 182.156 42.9873L153.219 63.0684C144.063 49.8746 130.332 40.5522 114.691 36.9101C99.05 33.2679 82.6136 35.5656 68.571 43.3574L51.4818 12.5587Z" fill="#296D6D" fill-opacity="0.89"/>
<path d="M180.165 40.2205C193.751 58.4391 200.725 80.7419 199.94 103.455L164.739 102.238C165.248 87.525 160.73 73.0778 151.929 61.2762L180.165 40.2205Z" fill="#153131" fill-opacity="0.89"/>
<circle cx="100" cy="100" r="44" fill="#136464" fill-opacity="0.3" stroke="white" stroke-width="3"/>
<path d="M315.256 101.296C313.809 100.88 312.754 100.37 312.092 99.7666C311.436 99.1572 311.107 98.4072 311.107 97.5166C311.107 96.5088 311.509 95.6768 312.312 95.0205C313.12 94.3584 314.169 94.0273 315.458 94.0273C316.337 94.0273 317.119 94.1973 317.805 94.5371C318.496 94.877 319.029 95.3457 319.404 95.9434C319.785 96.541 319.976 97.1943 319.976 97.9033H318.279C318.279 97.1299 318.033 96.5234 317.541 96.084C317.049 95.6387 316.354 95.416 315.458 95.416C314.626 95.416 313.976 95.6006 313.507 95.9697C313.044 96.333 312.812 96.8398 312.812 97.4902C312.812 98.0117 313.032 98.4541 313.472 98.8174C313.917 99.1748 314.67 99.5029 315.73 99.8018C316.797 100.101 317.629 100.432 318.227 100.795C318.83 101.152 319.275 101.571 319.562 102.052C319.855 102.532 320.002 103.098 320.002 103.748C320.002 104.785 319.598 105.617 318.789 106.244C317.98 106.865 316.899 107.176 315.546 107.176C314.667 107.176 313.847 107.009 313.085 106.675C312.323 106.335 311.734 105.872 311.318 105.286C310.908 104.7 310.703 104.035 310.703 103.291H312.399C312.399 104.064 312.684 104.677 313.252 105.128C313.826 105.573 314.591 105.796 315.546 105.796C316.437 105.796 317.119 105.614 317.594 105.251C318.068 104.888 318.306 104.393 318.306 103.766C318.306 103.139 318.086 102.655 317.646 102.315C317.207 101.97 316.41 101.63 315.256 101.296ZM332.008 107H330.312V101.085H323.86V107H322.173V94.2031H323.86V99.7051H330.312V94.2031H332.008V107ZM344.849 101.015C344.849 102.269 344.638 103.364 344.216 104.302C343.794 105.233 343.196 105.945 342.423 106.438C341.649 106.93 340.747 107.176 339.716 107.176C338.708 107.176 337.814 106.93 337.035 106.438C336.256 105.939 335.649 105.233 335.216 104.319C334.788 103.399 334.568 102.336 334.557 101.129V100.206C334.557 98.9756 334.771 97.8887 335.198 96.9453C335.626 96.002 336.229 95.2812 337.009 94.7832C337.794 94.2793 338.69 94.0273 339.698 94.0273C340.724 94.0273 341.626 94.2764 342.405 94.7744C343.19 95.2666 343.794 95.9844 344.216 96.9277C344.638 97.8652 344.849 98.958 344.849 100.206V101.015ZM343.17 100.188C343.17 98.6709 342.865 97.5078 342.256 96.6992C341.646 95.8848 340.794 95.4775 339.698 95.4775C338.632 95.4775 337.791 95.8848 337.176 96.6992C336.566 97.5078 336.253 98.6328 336.235 100.074V101.015C336.235 102.485 336.543 103.643 337.158 104.486C337.779 105.324 338.632 105.743 339.716 105.743C340.806 105.743 341.649 105.348 342.247 104.557C342.845 103.76 343.152 102.62 343.17 101.138V100.188ZM350.14 102.966L350.386 104.653L350.746 103.133L353.277 94.2031H354.701L357.171 103.133L357.522 104.68L357.795 102.957L359.781 94.2031H361.478L358.375 107H356.837L354.2 97.6748L353.998 96.6992L353.796 97.6748L351.062 107H349.524L346.431 94.2031H348.118L350.14 102.966ZM367.129 101.296C365.682 100.88 364.627 100.37 363.965 99.7666C363.309 99.1572 362.98 98.4072 362.98 97.5166C362.98 96.5088 363.382 95.6768 364.185 95.0205C364.993 94.3584 366.042 94.0273 367.331 94.0273C368.21 94.0273 368.992 94.1973 369.678 94.5371C370.369 94.877 370.902 95.3457 371.277 95.9434C371.658 96.541 371.849 97.1943 371.849 97.9033H370.152C370.152 97.1299 369.906 96.5234 369.414 96.084C368.922 95.6387 368.228 95.416 367.331 95.416C366.499 95.416 365.849 95.6006 365.38 95.9697C364.917 96.333 364.686 96.8398 364.686 97.4902C364.686 98.0117 364.905 98.4541 365.345 98.8174C365.79 99.1748 366.543 99.5029 367.604 99.8018C368.67 100.101 369.502 100.432 370.1 100.795C370.703 101.152 371.148 101.571 371.436 102.052C371.729 102.532 371.875 103.098 371.875 103.748C371.875 104.785 371.471 105.617 370.662 106.244C369.854 106.865 368.772 107.176 367.419 107.176C366.54 107.176 365.72 107.009 364.958 106.675C364.196 106.335 363.607 105.872 363.191 105.286C362.781 104.7 362.576 104.035 362.576 103.291H364.272C364.272 104.064 364.557 104.677 365.125 105.128C365.699 105.573 366.464 105.796 367.419 105.796C368.31 105.796 368.992 105.614 369.467 105.251C369.941 104.888 370.179 104.393 370.179 103.766C370.179 103.139 369.959 102.655 369.52 102.315C369.08 101.97 368.283 101.63 367.129 101.296Z" fill="white"/>
<path d="M311.665 35.2031L315.849 45.6445L320.032 35.2031H322.221V48H320.533V43.0166L320.691 37.6377L316.49 48H315.198L311.006 37.6641L311.173 43.0166V48H309.485V35.2031H311.665ZM334.209 35.2031V43.9043C334.203 45.1113 333.822 46.0986 333.066 46.8662C332.316 47.6338 331.297 48.0645 330.008 48.1582L329.56 48.1758C328.159 48.1758 327.043 47.7979 326.211 47.042C325.379 46.2861 324.957 45.2461 324.945 43.9219V35.2031H326.615V43.8691C326.615 44.7949 326.87 45.5156 327.38 46.0312C327.89 46.541 328.616 46.7959 329.56 46.7959C330.515 46.7959 331.244 46.541 331.748 46.0312C332.258 45.5215 332.513 44.8037 332.513 43.8779V35.2031H334.209ZM340.643 42.2959C339.195 41.8799 338.141 41.3701 337.479 40.7666C336.822 40.1572 336.494 39.4072 336.494 38.5166C336.494 37.5088 336.896 36.6768 337.698 36.0205C338.507 35.3584 339.556 35.0273 340.845 35.0273C341.724 35.0273 342.506 35.1973 343.191 35.5371C343.883 35.877 344.416 36.3457 344.791 36.9434C345.172 37.541 345.362 38.1943 345.362 38.9033H343.666C343.666 38.1299 343.42 37.5234 342.928 37.084C342.436 36.6387 341.741 36.416 340.845 36.416C340.013 36.416 339.362 36.6006 338.894 36.9697C338.431 37.333 338.199 37.8398 338.199 38.4902C338.199 39.0117 338.419 39.4541 338.858 39.8174C339.304 40.1748 340.057 40.5029 341.117 40.8018C342.184 41.1006 343.016 41.4316 343.613 41.7949C344.217 42.1523 344.662 42.5713 344.949 43.0518C345.242 43.5322 345.389 44.0977 345.389 44.748C345.389 45.7852 344.984 46.6172 344.176 47.2441C343.367 47.8652 342.286 48.1758 340.933 48.1758C340.054 48.1758 339.233 48.0088 338.472 47.6748C337.71 47.335 337.121 46.8721 336.705 46.2861C336.295 45.7002 336.09 45.0352 336.09 44.291H337.786C337.786 45.0645 338.07 45.6768 338.639 46.1279C339.213 46.5732 339.978 46.7959 340.933 46.7959C341.823 46.7959 342.506 46.6143 342.98 46.251C343.455 45.8877 343.692 45.3926 343.692 44.7656C343.692 44.1387 343.473 43.6553 343.033 43.3154C342.594 42.9697 341.797 42.6299 340.643 42.2959ZM354.793 42.085H349.247V46.6201H355.689V48H347.56V35.2031H355.602V36.5918H349.247V40.7051H354.793V42.085ZM366.799 35.2031V43.9043C366.793 45.1113 366.412 46.0986 365.656 46.8662C364.906 47.6338 363.887 48.0645 362.598 48.1582L362.149 48.1758C360.749 48.1758 359.633 47.7979 358.801 47.042C357.969 46.2861 357.547 45.2461 357.535 43.9219V35.2031H359.205V43.8691C359.205 44.7949 359.46 45.5156 359.97 46.0312C360.479 46.541 361.206 46.7959 362.149 46.7959C363.104 46.7959 363.834 46.541 364.338 46.0312C364.848 45.5215 365.103 44.8037 365.103 43.8779V35.2031H366.799ZM373.232 42.2959C371.785 41.8799 370.73 41.3701 370.068 40.7666C369.412 40.1572 369.084 39.4072 369.084 38.5166C369.084 37.5088 369.485 36.6768 370.288 36.0205C371.097 35.3584 372.146 35.0273 373.435 35.0273C374.313 35.0273 375.096 35.1973 375.781 35.5371C376.473 35.877 377.006 36.3457 377.381 36.9434C377.762 37.541 377.952 38.1943 377.952 38.9033H376.256C376.256 38.1299 376.01 37.5234 375.518 37.084C375.025 36.6387 374.331 36.416 373.435 36.416C372.603 36.416 371.952 36.6006 371.483 36.9697C371.021 37.333 370.789 37.8398 370.789 38.4902C370.789 39.0117 371.009 39.4541 371.448 39.8174C371.894 40.1748 372.646 40.5029 373.707 40.8018C374.773 41.1006 375.605 41.4316 376.203 41.7949C376.807 42.1523 377.252 42.5713 377.539 43.0518C377.832 43.5322 377.979 44.0977 377.979 44.748C377.979 45.7852 377.574 46.6172 376.766 47.2441C375.957 47.8652 374.876 48.1758 373.522 48.1758C372.644 48.1758 371.823 48.0088 371.062 47.6748C370.3 47.335 369.711 46.8721 369.295 46.2861C368.885 45.7002 368.68 45.0352 368.68 44.291H370.376C370.376 45.0645 370.66 45.6768 371.229 46.1279C371.803 46.5732 372.567 46.7959 373.522 46.7959C374.413 46.7959 375.096 46.6143 375.57 46.251C376.045 45.8877 376.282 45.3926 376.282 44.7656C376.282 44.1387 376.062 43.6553 375.623 43.3154C375.184 42.9697 374.387 42.6299 373.232 42.2959Z" fill="white"/>
<path d="M313.173 160.99V166H311.485V153.203H316.205C317.605 153.203 318.701 153.561 319.492 154.275C320.289 154.99 320.688 155.937 320.688 157.114C320.688 158.356 320.298 159.314 319.519 159.988C318.745 160.656 317.635 160.99 316.188 160.99H313.173ZM313.173 159.61H316.205C317.107 159.61 317.799 159.399 318.279 158.978C318.76 158.55 319 157.935 319 157.132C319 156.37 318.76 155.761 318.279 155.304C317.799 154.847 317.14 154.609 316.302 154.592H313.173V159.61ZM330.074 160.085H324.528V164.62H330.971V166H322.841V153.203H330.883V154.592H324.528V158.705H330.074V160.085ZM342.484 161.939C342.326 163.293 341.825 164.339 340.981 165.077C340.144 165.81 339.027 166.176 337.633 166.176C336.121 166.176 334.908 165.634 333.994 164.55C333.086 163.466 332.632 162.016 332.632 160.199V158.969C332.632 157.779 332.843 156.733 333.265 155.831C333.692 154.929 334.296 154.237 335.075 153.757C335.854 153.271 336.757 153.027 337.782 153.027C339.142 153.027 340.231 153.408 341.052 154.17C341.872 154.926 342.35 155.975 342.484 157.316H340.788C340.642 156.297 340.322 155.559 339.83 155.102C339.344 154.645 338.661 154.416 337.782 154.416C336.704 154.416 335.857 154.814 335.242 155.611C334.633 156.408 334.328 157.542 334.328 159.013V160.252C334.328 161.641 334.618 162.745 335.198 163.565C335.778 164.386 336.59 164.796 337.633 164.796C338.57 164.796 339.288 164.585 339.786 164.163C340.29 163.735 340.624 162.994 340.788 161.939H342.484ZM338.187 166.079L338.081 166.536C338.978 166.694 339.426 167.201 339.426 168.057C339.426 168.625 339.191 169.073 338.723 169.401C338.254 169.735 337.601 169.902 336.763 169.902L336.701 168.962C337.164 168.962 337.521 168.886 337.773 168.733C338.031 168.581 338.16 168.367 338.16 168.092C338.16 167.834 338.066 167.644 337.879 167.521C337.691 167.397 337.311 167.31 336.736 167.257L337.018 166.079H338.187ZM351.862 162.66H346.501L345.297 166H343.557L348.443 153.203H349.92L354.815 166H353.084L351.862 162.66ZM347.011 161.271H351.361L349.182 155.286L347.011 161.271ZM360.309 160.296C358.861 159.88 357.807 159.37 357.145 158.767C356.488 158.157 356.16 157.407 356.16 156.517C356.16 155.509 356.562 154.677 357.364 154.021C358.173 153.358 359.222 153.027 360.511 153.027C361.39 153.027 362.172 153.197 362.857 153.537C363.549 153.877 364.082 154.346 364.457 154.943C364.838 155.541 365.028 156.194 365.028 156.903H363.332C363.332 156.13 363.086 155.523 362.594 155.084C362.102 154.639 361.407 154.416 360.511 154.416C359.679 154.416 359.028 154.601 358.56 154.97C358.097 155.333 357.865 155.84 357.865 156.49C357.865 157.012 358.085 157.454 358.524 157.817C358.97 158.175 359.723 158.503 360.783 158.802C361.85 159.101 362.682 159.432 363.279 159.795C363.883 160.152 364.328 160.571 364.615 161.052C364.908 161.532 365.055 162.098 365.055 162.748C365.055 163.785 364.65 164.617 363.842 165.244C363.033 165.865 361.952 166.176 360.599 166.176C359.72 166.176 358.899 166.009 358.138 165.675C357.376 165.335 356.787 164.872 356.371 164.286C355.961 163.7 355.756 163.035 355.756 162.291H357.452C357.452 163.064 357.736 163.677 358.305 164.128C358.879 164.573 359.644 164.796 360.599 164.796C361.489 164.796 362.172 164.614 362.646 164.251C363.121 163.888 363.358 163.393 363.358 162.766C363.358 162.139 363.139 161.655 362.699 161.315C362.26 160.97 361.463 160.63 360.309 160.296Z" fill="white"/>
<circle cx="266" cy="41" r="15" fill="#153131"/>
<circle cx="268" cy="159" r="15" fill="#296D6D"/>
<circle cx="268" cy="100" r="15" fill="#24AEAE"/>
</svg>
