<svg width="571" height="400" viewBox="0 0 571 400" fill="none" xmlns="http://www.w3.org/2000/svg">
<path d="M400 200C400 235.311 390.651 269.993 372.903 300.521C355.156 331.048 329.642 356.332 298.956 373.804C268.27 391.275 233.505 400.311 198.195 399.992C162.885 399.673 128.289 390.012 97.9229 371.989C67.557 353.967 42.504 328.226 25.3103 297.383C8.11659 266.541 -0.6048 231.696 0.0325843 196.39C0.669968 161.084 10.6434 126.577 28.9392 96.3748C47.2349 66.1728 73.2007 41.3531 104.197 24.4385L137.941 86.2751C117.862 97.232 101.042 113.31 89.1905 132.874C77.3389 152.438 70.8783 174.791 70.4655 197.661C70.0526 220.532 75.7021 243.104 86.8398 263.083C97.9775 283.062 114.206 299.736 133.877 311.411C153.547 323.085 175.958 329.344 198.831 329.55C221.704 329.757 244.224 323.904 264.102 312.586C283.979 301.269 300.507 284.89 312.003 265.115C323.5 245.34 329.556 222.874 329.556 200H400Z" fill="#24AEAE" fill-opacity="0.89"/>
<path d="M102.964 25.1174C146.32 1.06038 197.067 -6.03377 245.358 5.21135C293.65 16.4565 336.043 45.239 364.311 85.9746L306.437 126.137C288.125 99.7492 260.664 81.1045 229.382 73.8202C198.1 66.5358 165.227 71.1312 137.142 86.7148L102.964 25.1174Z" fill="#296D6D" fill-opacity="0.89"/>
<path d="M360.33 80.4411C387.501 116.878 401.451 161.484 399.881 206.909L329.478 204.476C330.495 175.05 321.459 146.156 303.858 122.552L360.33 80.4411Z" fill="#153131" fill-opacity="0.89"/>
<circle cx="200" cy="200" r="88" fill="#136464" fill-opacity="0.3" stroke="white" stroke-width="3"/>
<path d="M507.256 186.296C505.809 185.88 504.754 185.37 504.092 184.767C503.436 184.157 503.107 183.407 503.107 182.517C503.107 181.509 503.509 180.677 504.312 180.021C505.12 179.358 506.169 179.027 507.458 179.027C508.337 179.027 509.119 179.197 509.805 179.537C510.496 179.877 511.029 180.346 511.404 180.943C511.785 181.541 511.976 182.194 511.976 182.903H510.279C510.279 182.13 510.033 181.523 509.541 181.084C509.049 180.639 508.354 180.416 507.458 180.416C506.626 180.416 505.976 180.601 505.507 180.97C505.044 181.333 504.812 181.84 504.812 182.49C504.812 183.012 505.032 183.454 505.472 183.817C505.917 184.175 506.67 184.503 507.73 184.802C508.797 185.101 509.629 185.432 510.227 185.795C510.83 186.152 511.275 186.571 511.562 187.052C511.855 187.532 512.002 188.098 512.002 188.748C512.002 189.785 511.598 190.617 510.789 191.244C509.98 191.865 508.899 192.176 507.546 192.176C506.667 192.176 505.847 192.009 505.085 191.675C504.323 191.335 503.734 190.872 503.318 190.286C502.908 189.7 502.703 189.035 502.703 188.291H504.399C504.399 189.064 504.684 189.677 505.252 190.128C505.826 190.573 506.591 190.796 507.546 190.796C508.437 190.796 509.119 190.614 509.594 190.251C510.068 189.888 510.306 189.393 510.306 188.766C510.306 188.139 510.086 187.655 509.646 187.315C509.207 186.97 508.41 186.63 507.256 186.296ZM524.008 192H522.312V186.085H515.86V192H514.173V179.203H515.86V184.705H522.312V179.203H524.008V192ZM536.849 186.015C536.849 187.269 536.638 188.364 536.216 189.302C535.794 190.233 535.196 190.945 534.423 191.438C533.649 191.93 532.747 192.176 531.716 192.176C530.708 192.176 529.814 191.93 529.035 191.438C528.256 190.939 527.649 190.233 527.216 189.319C526.788 188.399 526.568 187.336 526.557 186.129V185.206C526.557 183.976 526.771 182.889 527.198 181.945C527.626 181.002 528.229 180.281 529.009 179.783C529.794 179.279 530.69 179.027 531.698 179.027C532.724 179.027 533.626 179.276 534.405 179.774C535.19 180.267 535.794 180.984 536.216 181.928C536.638 182.865 536.849 183.958 536.849 185.206V186.015ZM535.17 185.188C535.17 183.671 534.865 182.508 534.256 181.699C533.646 180.885 532.794 180.478 531.698 180.478C530.632 180.478 529.791 180.885 529.176 181.699C528.566 182.508 528.253 183.633 528.235 185.074V186.015C528.235 187.485 528.543 188.643 529.158 189.486C529.779 190.324 530.632 190.743 531.716 190.743C532.806 190.743 533.649 190.348 534.247 189.557C534.845 188.76 535.152 187.62 535.17 186.138V185.188ZM542.14 187.966L542.386 189.653L542.746 188.133L545.277 179.203H546.701L549.171 188.133L549.522 189.68L549.795 187.957L551.781 179.203H553.478L550.375 192H548.837L546.2 182.675L545.998 181.699L545.796 182.675L543.062 192H541.524L538.431 179.203H540.118L542.14 187.966ZM559.129 186.296C557.682 185.88 556.627 185.37 555.965 184.767C555.309 184.157 554.98 183.407 554.98 182.517C554.98 181.509 555.382 180.677 556.185 180.021C556.993 179.358 558.042 179.027 559.331 179.027C560.21 179.027 560.992 179.197 561.678 179.537C562.369 179.877 562.902 180.346 563.277 180.943C563.658 181.541 563.849 182.194 563.849 182.903H562.152C562.152 182.13 561.906 181.523 561.414 181.084C560.922 180.639 560.228 180.416 559.331 180.416C558.499 180.416 557.849 180.601 557.38 180.97C556.917 181.333 556.686 181.84 556.686 182.49C556.686 183.012 556.905 183.454 557.345 183.817C557.79 184.175 558.543 184.503 559.604 184.802C560.67 185.101 561.502 185.432 562.1 185.795C562.703 186.152 563.148 186.571 563.436 187.052C563.729 187.532 563.875 188.098 563.875 188.748C563.875 189.785 563.471 190.617 562.662 191.244C561.854 191.865 560.772 192.176 559.419 192.176C558.54 192.176 557.72 192.009 556.958 191.675C556.196 191.335 555.607 190.872 555.191 190.286C554.781 189.7 554.576 189.035 554.576 188.291H556.272C556.272 189.064 556.557 189.677 557.125 190.128C557.699 190.573 558.464 190.796 559.419 190.796C560.31 190.796 560.992 190.614 561.467 190.251C561.941 189.888 562.179 189.393 562.179 188.766C562.179 188.139 561.959 187.655 561.52 187.315C561.08 186.97 560.283 186.63 559.129 186.296Z" fill="white"/>
<path d="M503.665 120.203L507.849 130.645L512.032 120.203H514.221V133H512.533V128.017L512.691 122.638L508.49 133H507.198L503.006 122.664L503.173 128.017V133H501.485V120.203H503.665ZM526.209 120.203V128.904C526.203 130.111 525.822 131.099 525.066 131.866C524.316 132.634 523.297 133.064 522.008 133.158L521.56 133.176C520.159 133.176 519.043 132.798 518.211 132.042C517.379 131.286 516.957 130.246 516.945 128.922V120.203H518.615V128.869C518.615 129.795 518.87 130.516 519.38 131.031C519.89 131.541 520.616 131.796 521.56 131.796C522.515 131.796 523.244 131.541 523.748 131.031C524.258 130.521 524.513 129.804 524.513 128.878V120.203H526.209ZM532.643 127.296C531.195 126.88 530.141 126.37 529.479 125.767C528.822 125.157 528.494 124.407 528.494 123.517C528.494 122.509 528.896 121.677 529.698 121.021C530.507 120.358 531.556 120.027 532.845 120.027C533.724 120.027 534.506 120.197 535.191 120.537C535.883 120.877 536.416 121.346 536.791 121.943C537.172 122.541 537.362 123.194 537.362 123.903H535.666C535.666 123.13 535.42 122.523 534.928 122.084C534.436 121.639 533.741 121.416 532.845 121.416C532.013 121.416 531.362 121.601 530.894 121.97C530.431 122.333 530.199 122.84 530.199 123.49C530.199 124.012 530.419 124.454 530.858 124.817C531.304 125.175 532.057 125.503 533.117 125.802C534.184 126.101 535.016 126.432 535.613 126.795C536.217 127.152 536.662 127.571 536.949 128.052C537.242 128.532 537.389 129.098 537.389 129.748C537.389 130.785 536.984 131.617 536.176 132.244C535.367 132.865 534.286 133.176 532.933 133.176C532.054 133.176 531.233 133.009 530.472 132.675C529.71 132.335 529.121 131.872 528.705 131.286C528.295 130.7 528.09 130.035 528.09 129.291H529.786C529.786 130.064 530.07 130.677 530.639 131.128C531.213 131.573 531.978 131.796 532.933 131.796C533.823 131.796 534.506 131.614 534.98 131.251C535.455 130.888 535.692 130.393 535.692 129.766C535.692 129.139 535.473 128.655 535.033 128.315C534.594 127.97 533.797 127.63 532.643 127.296ZM546.793 127.085H541.247V131.62H547.689V133H539.56V120.203H547.602V121.592H541.247V125.705H546.793V127.085ZM558.799 120.203V128.904C558.793 130.111 558.412 131.099 557.656 131.866C556.906 132.634 555.887 133.064 554.598 133.158L554.149 133.176C552.749 133.176 551.633 132.798 550.801 132.042C549.969 131.286 549.547 130.246 549.535 128.922V120.203H551.205V128.869C551.205 129.795 551.46 130.516 551.97 131.031C552.479 131.541 553.206 131.796 554.149 131.796C555.104 131.796 555.834 131.541 556.338 131.031C556.848 130.521 557.103 129.804 557.103 128.878V120.203H558.799ZM565.232 127.296C563.785 126.88 562.73 126.37 562.068 125.767C561.412 125.157 561.084 124.407 561.084 123.517C561.084 122.509 561.485 121.677 562.288 121.021C563.097 120.358 564.146 120.027 565.435 120.027C566.313 120.027 567.096 120.197 567.781 120.537C568.473 120.877 569.006 121.346 569.381 121.943C569.762 122.541 569.952 123.194 569.952 123.903H568.256C568.256 123.13 568.01 122.523 567.518 122.084C567.025 121.639 566.331 121.416 565.435 121.416C564.603 121.416 563.952 121.601 563.483 121.97C563.021 122.333 562.789 122.84 562.789 123.49C562.789 124.012 563.009 124.454 563.448 124.817C563.894 125.175 564.646 125.503 565.707 125.802C566.773 126.101 567.605 126.432 568.203 126.795C568.807 127.152 569.252 127.571 569.539 128.052C569.832 128.532 569.979 129.098 569.979 129.748C569.979 130.785 569.574 131.617 568.766 132.244C567.957 132.865 566.876 133.176 565.522 133.176C564.644 133.176 563.823 133.009 563.062 132.675C562.3 132.335 561.711 131.872 561.295 131.286C560.885 130.7 560.68 130.035 560.68 129.291H562.376C562.376 130.064 562.66 130.677 563.229 131.128C563.803 131.573 564.567 131.796 565.522 131.796C566.413 131.796 567.096 131.614 567.57 131.251C568.045 130.888 568.282 130.393 568.282 129.766C568.282 129.139 568.062 128.655 567.623 128.315C567.184 127.97 566.387 127.63 565.232 127.296Z" fill="white"/>
<path d="M505.173 245.99V251H503.485V238.203H508.205C509.605 238.203 510.701 238.561 511.492 239.275C512.289 239.99 512.688 240.937 512.688 242.114C512.688 243.356 512.298 244.314 511.519 244.988C510.745 245.656 509.635 245.99 508.188 245.99H505.173ZM505.173 244.61H508.205C509.107 244.61 509.799 244.399 510.279 243.978C510.76 243.55 511 242.935 511 242.132C511 241.37 510.76 240.761 510.279 240.304C509.799 239.847 509.14 239.609 508.302 239.592H505.173V244.61ZM522.074 245.085H516.528V249.62H522.971V251H514.841V238.203H522.883V239.592H516.528V243.705H522.074V245.085ZM534.484 246.939C534.326 248.293 533.825 249.339 532.981 250.077C532.144 250.81 531.027 251.176 529.633 251.176C528.121 251.176 526.908 250.634 525.994 249.55C525.086 248.466 524.632 247.016 524.632 245.199V243.969C524.632 242.779 524.843 241.733 525.265 240.831C525.692 239.929 526.296 239.237 527.075 238.757C527.854 238.271 528.757 238.027 529.782 238.027C531.142 238.027 532.231 238.408 533.052 239.17C533.872 239.926 534.35 240.975 534.484 242.316H532.788C532.642 241.297 532.322 240.559 531.83 240.102C531.344 239.645 530.661 239.416 529.782 239.416C528.704 239.416 527.857 239.814 527.242 240.611C526.633 241.408 526.328 242.542 526.328 244.013V245.252C526.328 246.641 526.618 247.745 527.198 248.565C527.778 249.386 528.59 249.796 529.633 249.796C530.57 249.796 531.288 249.585 531.786 249.163C532.29 248.735 532.624 247.994 532.788 246.939H534.484ZM530.187 251.079L530.081 251.536C530.978 251.694 531.426 252.201 531.426 253.057C531.426 253.625 531.191 254.073 530.723 254.401C530.254 254.735 529.601 254.902 528.763 254.902L528.701 253.962C529.164 253.962 529.521 253.886 529.773 253.733C530.031 253.581 530.16 253.367 530.16 253.092C530.16 252.834 530.066 252.644 529.879 252.521C529.691 252.397 529.311 252.31 528.736 252.257L529.018 251.079H530.187ZM543.862 247.66H538.501L537.297 251H535.557L540.443 238.203H541.92L546.815 251H545.084L543.862 247.66ZM539.011 246.271H543.361L541.182 240.286L539.011 246.271ZM552.309 245.296C550.861 244.88 549.807 244.37 549.145 243.767C548.488 243.157 548.16 242.407 548.16 241.517C548.16 240.509 548.562 239.677 549.364 239.021C550.173 238.358 551.222 238.027 552.511 238.027C553.39 238.027 554.172 238.197 554.857 238.537C555.549 238.877 556.082 239.346 556.457 239.943C556.838 240.541 557.028 241.194 557.028 241.903H555.332C555.332 241.13 555.086 240.523 554.594 240.084C554.102 239.639 553.407 239.416 552.511 239.416C551.679 239.416 551.028 239.601 550.56 239.97C550.097 240.333 549.865 240.84 549.865 241.49C549.865 242.012 550.085 242.454 550.524 242.817C550.97 243.175 551.723 243.503 552.783 243.802C553.85 244.101 554.682 244.432 555.279 244.795C555.883 245.152 556.328 245.571 556.615 246.052C556.908 246.532 557.055 247.098 557.055 247.748C557.055 248.785 556.65 249.617 555.842 250.244C555.033 250.865 553.952 251.176 552.599 251.176C551.72 251.176 550.899 251.009 550.138 250.675C549.376 250.335 548.787 249.872 548.371 249.286C547.961 248.7 547.756 248.035 547.756 247.291H549.452C549.452 248.064 549.736 248.677 550.305 249.128C550.879 249.573 551.644 249.796 552.599 249.796C553.489 249.796 554.172 249.614 554.646 249.251C555.121 248.888 555.358 248.393 555.358 247.766C555.358 247.139 555.139 246.655 554.699 246.315C554.26 245.97 553.463 245.63 552.309 245.296Z" fill="white"/>
<circle cx="458" cy="126" r="15" fill="#153131"/>
<circle cx="460" cy="244" r="15" fill="#296D6D"/>
<circle cx="460" cy="185" r="15" fill="#24AEAE"/>
</svg>
